<mxfile host="65bd71144e">
    <diagram id="R27dza_fgpiSLW_AWPo4" name="Page-1">
        <mxGraphModel dx="1444" dy="538" grid="1" gridSize="10" guides="1" tooltips="1" connect="1" arrows="1" fold="1" page="1" pageScale="1" pageWidth="850" pageHeight="1100" math="0" shadow="0">
            <root>
                <mxCell id="0"/>
                <mxCell id="1" parent="0"/>
                <mxCell id="3" style="edgeStyle=none;html=1;" parent="1" source="2" edge="1">
                    <mxGeometry relative="1" as="geometry">
                        <mxPoint x="330" y="100" as="targetPoint"/>
                    </mxGeometry>
                </mxCell>
                <mxCell id="2" value="start" style="strokeWidth=2;html=1;shape=mxgraph.flowchart.terminator;whiteSpace=wrap;" parent="1" vertex="1">
                    <mxGeometry x="280" y="10" width="100" height="60" as="geometry"/>
                </mxCell>
                <mxCell id="26" value="" style="edgeStyle=none;html=1;" edge="1" parent="1" target="25">
                    <mxGeometry relative="1" as="geometry">
                        <mxPoint x="330" y="160" as="sourcePoint"/>
                    </mxGeometry>
                </mxCell>
                <mxCell id="28" value="" style="edgeStyle=none;html=1;" edge="1" parent="1" source="25" target="27">
                    <mxGeometry relative="1" as="geometry"/>
                </mxCell>
                <mxCell id="25" value="_&amp;nbsp; =&amp;nbsp; 0" style="whiteSpace=wrap;html=1;rounded=1;" vertex="1" parent="1">
                    <mxGeometry x="270" y="240" width="120" height="60" as="geometry"/>
                </mxCell>
                <mxCell id="32" value="" style="edgeStyle=none;html=1;" edge="1" parent="1" source="27" target="31">
                    <mxGeometry relative="1" as="geometry"/>
                </mxCell>
                <mxCell id="59" style="edgeStyle=none;html=1;entryX=0.5;entryY=0;entryDx=0;entryDy=0;entryPerimeter=0;" edge="1" parent="1" source="27" target="58">
                    <mxGeometry relative="1" as="geometry">
                        <Array as="points">
                            <mxPoint x="200" y="410"/>
                            <mxPoint x="200" y="1050"/>
                            <mxPoint x="330" y="1050"/>
                        </Array>
                    </mxGeometry>
                </mxCell>
                <mxCell id="27" value="_&amp;nbsp; &amp;lt; N" style="rhombus;whiteSpace=wrap;html=1;rounded=1;" vertex="1" parent="1">
                    <mxGeometry x="290" y="370" width="80" height="80" as="geometry"/>
                </mxCell>
                <mxCell id="30" style="edgeStyle=none;html=1;" edge="1" parent="1" source="29" target="27">
                    <mxGeometry relative="1" as="geometry"/>
                </mxCell>
                <mxCell id="29" value="_&amp;nbsp; +=&amp;nbsp; 1" style="whiteSpace=wrap;html=1;rounded=1;" vertex="1" parent="1">
                    <mxGeometry x="540" y="380" width="120" height="60" as="geometry"/>
                </mxCell>
                <mxCell id="37" style="edgeStyle=none;html=1;entryX=0;entryY=0.5;entryDx=0;entryDy=0;" edge="1" parent="1" source="31" target="34">
                    <mxGeometry relative="1" as="geometry"/>
                </mxCell>
                <mxCell id="31" value="R, S&amp;nbsp;" style="shape=parallelogram;perimeter=parallelogramPerimeter;whiteSpace=wrap;html=1;fixedSize=1;rounded=1;" vertex="1" parent="1">
                    <mxGeometry x="270" y="520" width="120" height="60" as="geometry"/>
                </mxCell>
                <mxCell id="33" value="N&amp;nbsp;" style="shape=parallelogram;perimeter=parallelogramPerimeter;whiteSpace=wrap;html=1;fixedSize=1;rounded=1;" vertex="1" parent="1">
                    <mxGeometry x="270" y="100" width="120" height="60" as="geometry"/>
                </mxCell>
                <mxCell id="39" value="" style="edgeStyle=none;html=1;" edge="1" parent="1" source="34">
                    <mxGeometry relative="1" as="geometry">
                        <mxPoint x="600" y="650" as="targetPoint"/>
                    </mxGeometry>
                </mxCell>
                <mxCell id="34" value="int(R)" style="whiteSpace=wrap;html=1;rounded=1;" vertex="1" parent="1">
                    <mxGeometry x="540" y="520" width="120" height="60" as="geometry"/>
                </mxCell>
                <mxCell id="42" value="" style="edgeStyle=none;html=1;" edge="1" parent="1" source="40" target="41">
                    <mxGeometry relative="1" as="geometry"/>
                </mxCell>
                <mxCell id="40" value="i&amp;nbsp; =&amp;nbsp; 0" style="whiteSpace=wrap;html=1;rounded=1;" vertex="1" parent="1">
                    <mxGeometry x="540" y="650" width="120" height="60" as="geometry"/>
                </mxCell>
                <mxCell id="47" value="" style="edgeStyle=none;html=1;" edge="1" parent="1" source="41" target="46">
                    <mxGeometry relative="1" as="geometry"/>
                </mxCell>
                <mxCell id="54" style="edgeStyle=none;html=1;entryX=1;entryY=0.5;entryDx=0;entryDy=0;" edge="1" parent="1" source="41" target="29">
                    <mxGeometry relative="1" as="geometry">
                        <Array as="points">
                            <mxPoint x="450" y="800"/>
                            <mxPoint x="450" y="1080"/>
                            <mxPoint x="990" y="1080"/>
                            <mxPoint x="990" y="410"/>
                        </Array>
                    </mxGeometry>
                </mxCell>
                <mxCell id="41" value="while i &amp;lt; len(S)" style="rhombus;whiteSpace=wrap;html=1;rounded=1;" vertex="1" parent="1">
                    <mxGeometry x="550" y="750" width="100" height="100" as="geometry"/>
                </mxCell>
                <mxCell id="44" style="edgeStyle=none;html=1;" edge="1" parent="1" source="43" target="41">
                    <mxGeometry relative="1" as="geometry"/>
                </mxCell>
                <mxCell id="43" value="i&amp;nbsp; +=&amp;nbsp; 1" style="whiteSpace=wrap;html=1;rounded=1;" vertex="1" parent="1">
                    <mxGeometry x="780" y="770" width="120" height="60" as="geometry"/>
                </mxCell>
                <mxCell id="45" value="Y" style="text;html=1;align=center;verticalAlign=middle;resizable=0;points=[];autosize=1;strokeColor=none;fillColor=none;" vertex="1" parent="1">
                    <mxGeometry x="340" y="440" width="20" height="20" as="geometry"/>
                </mxCell>
                <mxCell id="49" value="" style="edgeStyle=none;html=1;" edge="1" parent="1" source="46" target="48">
                    <mxGeometry relative="1" as="geometry"/>
                </mxCell>
                <mxCell id="46" value="result = R * S[i]" style="whiteSpace=wrap;html=1;rounded=1;" vertex="1" parent="1">
                    <mxGeometry x="540" y="980" width="120" height="60" as="geometry"/>
                </mxCell>
                <mxCell id="63" style="edgeStyle=none;html=1;" edge="1" parent="1" source="48" target="61">
                    <mxGeometry relative="1" as="geometry"/>
                </mxCell>
                <mxCell id="48" value="result, end=''" style="shape=document;whiteSpace=wrap;html=1;boundedLbl=1;rounded=1;" vertex="1" parent="1">
                    <mxGeometry x="780" y="970" width="120" height="80" as="geometry"/>
                </mxCell>
                <mxCell id="51" value="Y" style="text;html=1;align=center;verticalAlign=middle;resizable=0;points=[];autosize=1;strokeColor=none;fillColor=none;" vertex="1" parent="1">
                    <mxGeometry x="610" y="870" width="20" height="20" as="geometry"/>
                </mxCell>
                <mxCell id="57" value="N" style="text;html=1;align=center;verticalAlign=middle;resizable=0;points=[];autosize=1;strokeColor=none;fillColor=none;" vertex="1" parent="1">
                    <mxGeometry x="540" y="840" width="20" height="20" as="geometry"/>
                </mxCell>
                <mxCell id="58" value="finish" style="strokeWidth=2;html=1;shape=mxgraph.flowchart.terminator;whiteSpace=wrap;" vertex="1" parent="1">
                    <mxGeometry x="280" y="1150" width="100" height="60" as="geometry"/>
                </mxCell>
                <mxCell id="60" value="N" style="text;html=1;align=center;verticalAlign=middle;resizable=0;points=[];autosize=1;strokeColor=none;fillColor=none;" vertex="1" parent="1">
                    <mxGeometry x="270" y="420" width="20" height="20" as="geometry"/>
                </mxCell>
                <mxCell id="62" value="" style="edgeStyle=none;html=1;" edge="1" parent="1" source="61" target="43">
                    <mxGeometry relative="1" as="geometry"/>
                </mxCell>
                <mxCell id="61" value="" style="shape=document;whiteSpace=wrap;html=1;boundedLbl=1;rounded=1;" vertex="1" parent="1">
                    <mxGeometry x="780" y="870" width="120" height="60" as="geometry"/>
                </mxCell>
            </root>
        </mxGraphModel>
    </diagram>
</mxfile>